<svg width="116" height="21" viewBox="0 0 116 21" fill="none" xmlns="http://www.w3.org/2000/svg">
<line y1="10.5" x2="80" y2="10.5" stroke="#C4C4C4"/>
<path d="M93.01 11.12L90.476 5.66H91.512L93.892 11.078H93.99V5.66H94.928V11.078H95.026L97.42 5.66H98.456L95.908 11.12L98.722 17H97.672L95.068 11.274H94.928V17H93.99V11.274H93.864L91.26 17H90.21L93.01 11.12ZM100.09 5.66H101.154L103.394 15.502L105.676 5.66H106.74L107.02 17H106.138L105.914 7.97L103.744 17H103.058L100.916 7.984L100.692 17H99.8101L100.09 5.66ZM108.89 5.66H109.842V14.648L113.51 5.66H114.336V17H113.384V7.97L109.73 17H108.89V5.66Z" fill="#C4C4C4"/>
</svg>
